<svg width="15" height="16" viewBox="0 0 15 16" fill="none" xmlns="http://www.w3.org/2000/svg">
<mask id="mask0_118_705" style="mask-type:alpha" maskUnits="userSpaceOnUse" x="0" y="0" width="15" height="16">
<rect y="0.5" width="15" height="15" fill="#A0ACB7"/>
</mask>
<g mask="url(#mask0_118_705)">
<path d="M8.4073 14.25C7.53786 14.25 6.7208 14.0859 5.95611 13.7578C5.19142 13.4297 4.52625 12.9844 3.96059 12.4219C3.39493 11.8594 2.94711 11.1979 2.61715 10.4375C2.28718 9.67708 2.12219 8.86458 2.12219 8C2.12219 7.125 2.28718 6.3099 2.61715 5.55469C2.94711 4.79948 3.39493 4.14062 3.96059 3.57812L4.8405 4.45313C4.3796 4.91146 4.02082 5.44271 3.76418 6.04688C3.50754 6.65104 3.37921 7.30208 3.37921 8C3.37921 9.39583 3.86631 10.5781 4.8405 11.5469C5.8147 12.5156 7.00363 13 8.4073 13C9.81098 13 10.9999 12.5156 11.9741 11.5469C12.9483 10.5781 13.4354 9.39583 13.4354 8C13.4354 7.30208 13.3071 6.65104 13.0504 6.04688C12.7938 5.44271 12.435 4.91146 11.9741 4.45313L12.854 3.57812C13.4197 4.14062 13.8675 4.79948 14.1975 5.55469C14.5274 6.3099 14.6924 7.125 14.6924 8C14.6924 8.86458 14.5274 9.67708 14.1975 10.4375C13.8675 11.1979 13.4197 11.8594 12.854 12.4219C12.2884 12.9844 11.6232 13.4297 10.8585 13.7578C10.0938 14.0859 9.27675 14.25 8.4073 14.25ZM7.77879 8.625V1.75H9.03582V8.625H7.77879Z" fill="#A0ACB7"/>
</g>
</svg>
