<svg width="21" height="21" viewBox="0 0 21 21" fill="none" xmlns="http://www.w3.org/2000/svg">
<path d="M7.62501 20.25L7.22501 17.05C7.00835 16.9667 6.80418 16.8667 6.61251 16.75C6.42085 16.6333 6.23335 16.5083 6.05001 16.375L3.07501 17.625L0.325012 12.875L2.90001 10.925C2.88335 10.8083 2.87501 10.6958 2.87501 10.5875V9.9125C2.87501 9.80417 2.88335 9.69167 2.90001 9.575L0.325012 7.625L3.07501 2.875L6.05001 4.125C6.23335 3.99167 6.42501 3.86667 6.62501 3.75C6.82501 3.63333 7.02501 3.53333 7.22501 3.45L7.62501 0.25H13.125L13.525 3.45C13.7417 3.53333 13.9458 3.63333 14.1375 3.75C14.3292 3.86667 14.5167 3.99167 14.7 4.125L17.675 2.875L20.425 7.625L17.85 9.575C17.8667 9.69167 17.875 9.80417 17.875 9.9125V10.5875C17.875 10.6958 17.8583 10.8083 17.825 10.925L20.4 12.875L17.65 17.625L14.7 16.375C14.5167 16.5083 14.325 16.6333 14.125 16.75C13.925 16.8667 13.725 16.9667 13.525 17.05L13.125 20.25H7.62501ZM9.37501 18.25H11.35L11.7 15.6C12.2167 15.4667 12.6958 15.2708 13.1375 15.0125C13.5792 14.7542 13.9833 14.4417 14.35 14.075L16.825 15.1L17.8 13.4L15.65 11.775C15.7333 11.5417 15.7917 11.2958 15.825 11.0375C15.8583 10.7792 15.875 10.5167 15.875 10.25C15.875 9.98333 15.8583 9.72083 15.825 9.4625C15.7917 9.20417 15.7333 8.95833 15.65 8.725L17.8 7.1L16.825 5.4L14.35 6.45C13.9833 6.06667 13.5792 5.74583 13.1375 5.4875C12.6958 5.22917 12.2167 5.03333 11.7 4.9L11.375 2.25H9.40001L9.05001 4.9C8.53335 5.03333 8.05418 5.22917 7.61251 5.4875C7.17085 5.74583 6.76668 6.05833 6.40001 6.425L3.92501 5.4L2.95001 7.1L5.10001 8.7C5.01668 8.95 4.95835 9.2 4.92501 9.45C4.89168 9.7 4.87501 9.96667 4.87501 10.25C4.87501 10.5167 4.89168 10.775 4.92501 11.025C4.95835 11.275 5.01668 11.525 5.10001 11.775L2.95001 13.4L3.92501 15.1L6.40001 14.05C6.76668 14.4333 7.17085 14.7542 7.61251 15.0125C8.05418 15.2708 8.53335 15.4667 9.05001 15.6L9.37501 18.25ZM10.425 13.75C11.3917 13.75 12.2167 13.4083 12.9 12.725C13.5833 12.0417 13.925 11.2167 13.925 10.25C13.925 9.28333 13.5833 8.45833 12.9 7.775C12.2167 7.09167 11.3917 6.75 10.425 6.75C9.44168 6.75 8.61251 7.09167 7.93751 7.775C7.26251 8.45833 6.92501 9.28333 6.92501 10.25C6.92501 11.2167 7.26251 12.0417 7.93751 12.725C8.61251 13.4083 9.44168 13.75 10.425 13.75Z" fill="white"/>
</svg>
